<svg xmlns="http://www.w3.org/2000/svg" viewBox="0 0 512 512" style="height: 512px; width: 512px;"><g class="" transform="translate(1,-1)" style=""><g><path d="M255.703 44.764C249.527 44.764 243.35 46.148 238.566 48.916L85.814 137.276C76.244 142.811 76.244 151.566 85.814 157.102L238.566 245.461C248.136 250.997 263.269 250.997 272.838 245.461L425.592 157.101C435.162 151.567 435.162 142.812 425.592 137.277L272.838 48.916C268.053 46.146 261.878 44.764 255.703 44.764Z" class="" fill="#b24c0c" fill-opacity="1"></path><path d="M239.637 92.492C250.063 92.562 259.905 95.489 269.16 101.273C276.377 105.783 280.663 110.467 282.02 115.323C283.32 120.143 281.709 125.058 277.182 130.068C286.489 127.116 295.662 126.201 304.703 127.322C313.737 128.381 322.358 131.473 330.566 136.604C342.796 144.247 348.077 152.484 346.408 161.314C344.684 170.11 336.095 179.144 320.641 188.416C315.189 191.687 309.189 194.646 302.643 197.291C296.199 199.942 289.28 202.237 281.885 204.178L257.344 188.84C265.439 187.627 272.768 185.994 279.336 183.943C285.896 181.829 291.619 179.309 296.502 176.379C303.755 172.027 307.842 167.785 308.762 163.656C309.729 159.499 307.485 155.717 302.032 152.309C296.412 148.797 290.181 147.339 283.334 147.938C276.479 148.474 269.188 151.061 261.461 155.698L250.51 162.268L230.016 149.459L241.536 142.547C248.409 138.422 252.291 134.577 253.178 131.007C254.01 127.404 251.864 124.001 246.74 120.799C242.003 117.838 236.704 116.531 230.844 116.875C224.984 117.219 219.065 119.184 213.092 122.768C208.682 125.413 204.806 128.448 201.459 131.873C198.112 135.298 195.34 139.053 193.143 143.139L169.84 128.574C173.519 124.193 177.569 120.138 181.945 116.454C186.438 112.671 191.228 109.255 196.268 106.24C210.063 97.963 223.018 93.43 235.133 92.639C236.632 92.532 238.134 92.483 239.637 92.492Z" class="" fill="#000000" fill-opacity="1"></path><path d="M435.867 173.814C433.929 173.888 431.649 174.672 428.912 176.227L281.977 261.074C272.407 266.601 264.837 279.712 264.837 290.764L264.837 448.463C264.837 459.513 272.407 463.882 281.977 458.353L428.914 373.51C438.484 367.983 446.051 354.874 446.051 343.822L446.051 186.122C443.554 178.074 440.821 173.627 435.867 173.814Z" class="" fill="#ffeb0b" fill-opacity="1"></path><path d="M76.104 174.294C69.877 174.294 66.071 179.619 65.949 186.119L65.949 343.816C65.949 354.868 73.519 367.979 83.089 373.506L230.019 458.354C239.589 463.88 247.16 459.51 247.16 448.459L247.16 290.759C247.16 279.708 239.59 266.6 230.02 261.072L83.09 176.225C80.523 174.887 78.179 174.295 76.104 174.295Z" class="" fill="#9a9a9e" fill-opacity="1"></path><path d="M112.294 232.051C118.761 233.342 125.102 235.201 131.244 237.604C137.487 239.977 143.607 242.964 149.604 246.562C162.777 254.467 173.002 264.12 180.277 275.523C187.601 286.956 191.262 298.967 191.262 311.553C191.262 318.83 189.714 324.701 186.617 329.166C183.52 333.571 177.007 338.074 167.078 342.674L143.557 353.614L192 382.68L192 408L112 360L112 334.68L152.184 315.752C155.772 313.968 158.428 311.714 160.148 308.988C161.868 306.263 162.728 302.873 162.728 298.816C162.728 292.553 160.982 286.466 157.492 280.555C154.052 274.673 149.456 270.005 143.705 266.555C139.281 263.9 134.439 262.158 129.18 261.328C123.92 260.439 118.292 260.463 112.295 261.398L112.295 232.051Z" class="selected" fill="#000000" fill-opacity="1"></path><path d="M374.17 239.498L374.17 351.268L400 335.77L400 360L320.684 407.59L320.684 383.36L346.516 367.861L346.516 279.957L320 302.424L320 278.559L346.363 256.182L374.17 239.498Z" class="" fill="#000000" fill-opacity="1"></path></g></g></svg>