<!DOCTYPE svg PUBLIC "-//W3C//DTD SVG 1.1//EN" "http://www.w3.org/Graphics/SVG/1.1/DTD/svg11.dtd">

<!-- Uploaded to: SVG Repo, www.svgrepo.com, Transformed by: SVG Repo Mixer Tools -->
<svg fill="#d4af37" height="800px" width="800px" version="1.1" id="Layer_1" xmlns="http://www.w3.org/2000/svg" xmlns:xlink="http://www.w3.org/1999/xlink" viewBox="0 0 496.01 496.01" xml:space="preserve" stroke="#d4af375">

<g id="SVGRepo_bgCarrier" stroke-width="0"/>

<g id="SVGRepo_tracerCarrier" stroke-linecap="round" stroke-linejoin="round"/>

<g id="SVGRepo_iconCarrier"> <g> <g> <g> <path d="M416.004,416h-27.04l7.96-39.776l19.08,19.088v-48.208l26.544,8.84l-2.704-13.512 c-3.912-19.584-12.992-32.328-22.056-40.52c40.208-6.528,78.216-29.28,78.216-77.912c0-69.76-44.536-79.472-46.432-79.84 l-13.48-2.688l4.312,13.056c3.056,9.24,5.96,26.6,0.736,33.832c-1.128,1.552-3.304,3.64-9.136,3.64 c-14.448,0-24.736,4.24-32,9.496v-19.672c11.848,2.048,21.888,2.176,24,2.176h8v-8c0-86.488-37.472-115.704-54.096-124.416 l9.2-27.584h-11.104c-15.128,0-26.952,1.728-35.456,3.656L347.108,8h-11.104c-17.696,0-31.04,4.512-40,9.072V0h-8 c-20.104,0-37.168,5.808-48,10.704V0h-8c-28.848,0-44.832,15.488-51.904,28.488C170.348,23.352,153.372,16,136.004,16 c-27,0-44.904,17.592-45.656,18.344L76.692,48h19.312c12.688,0,20.712,4.416,25.6,8.936c-41.32,5.576-56.088,34.144-56.76,35.488 L59.06,104h12.944c13.704,0,23.304,0.976,29.848,2.12c-13.08,10.808-29.848,32.048-29.848,69.88v9.224l24-3.432v19.704 c-7.264-5.256-17.552-9.496-32-9.496c-5.832,0-8.008-2.088-9.144-3.648c-5.224-7.224-2.32-24.584,0.736-33.832l4.32-13.064 l-13.48,2.704C44.54,144.528,0.004,154.24,0.004,224c0,48.632,38.008,71.384,78.216,77.912 c-9.064,8.192-18.144,20.936-22.056,40.52l-2.704,13.512l26.544-8.84v48.208l19.088-19.088L107.044,416h-27.04 c-44.112,0-80,35.888-80,80h16c0-35.288,28.712-64,64-64h98.928c19.2,39.264,65.712,47.544,67.76,47.888l1.312,0.224l1.312-0.216 c2.056-0.344,48.56-8.632,67.76-47.888h98.928c35.288,0,64,28.712,64,64h16C496.004,451.888,460.116,416,416.004,416z M432.004,208c12.16,0,18.744-5.6,22.136-10.304c6.184-8.592,6.512-20.76,5.304-30.76c1.648,1.376,3.336,3.12,5.016,5.04 c1.328,11.8,4.088,59.568-35.696,77.2l6.488,14.624c26.656-11.808,38.8-35.136,43.44-57.352 c0.776,5.296,1.312,11.008,1.312,17.552c0,53.304-56.128,62.328-80,63.752v-16.128c6.168-0.352,12.152-0.968,17.664-2.136 l-3.328-15.656c-4.448,0.952-9.312,1.472-14.336,1.8v-30.088C401.74,221.72,409.556,208,432.004,208z M88.428,166.72 c3.832-42.08,33.248-54.76,34.544-55.288l11.264-4.504l-8.576-8.576c-2.064-2.064-10.32-8.08-37.352-9.84 C96.788,80.832,111.804,72,136.004,72h11.104l-3.512-10.528c-0.304-0.928-6.248-17.992-26.136-25.72 C122.644,33.616,128.924,32,136.004,32c21.208,0,43.352,14.512,43.568,14.664l9.448,6.256l2.744-10.984 c0.064-0.232,5.76-21.728,32.24-25.408v22.416l12.44-8.288c0.2-0.136,18.384-12.072,43.56-14.296l0.048,34.496l13.56-13.152 c0.504-0.488,10.688-10.128,31.04-12.936L314.46,55.464l17.08-8.28c0.136-0.064,11.328-5.368,33.248-6.824l-7.016,21.04 l8.04,2.296c0.488,0.136,47.304,14.56,50.072,103.944c-13.008-1-33.296-4.376-42.216-13.296l-13.664-13.656v35.08 c-41.536-2.392-75.528-22.416-75.888-22.632l-16.536-9.872l10.032,40.152c-31.552-3.8-37.592-24.464-37.84-25.344l-4.384-17.544 l-10.032,15.048c-0.128,0.176-11.256,16.504-33.344,19.84v-33.832l-14.656,21.984c-0.128,0.176-11.256,16.504-33.344,19.84 v-24.632L88.428,166.72z M16.004,224c0-6.544,0.536-12.256,1.32-17.544c4.64,22.216,16.784,45.544,43.44,57.352l6.488-14.624 c-39.8-17.632-37.024-65.432-35.696-77.208c1.68-1.928,3.368-3.672,5.016-5.048c-1.208,10.008-0.888,22.176,5.304,30.776 C45.26,202.4,51.844,208,64.004,208c22.28,0,30.176,13.616,32,17.568v30.056c-5.024-0.328-9.888-0.848-14.336-1.8L78.34,269.48 c5.512,1.168,11.496,1.784,17.664,2.136v16.128C72.132,286.328,16.004,277.304,16.004,224z M176.004,416h-65.048l18.728-28.096 c8.336,6.416,23.792,16.488,46.32,24.376V416z M304.004,422.4c-13.176,30.64-48.704,39.848-56,41.44 c-7.32-1.6-42.824-10.824-56-41.44v-5.296c15.936,4.112,34.552,6.896,56,6.896s40.064-2.784,56-6.896V422.4z M320.004,416v-3.72 c22.528-7.88,37.984-17.96,46.32-24.376L385.052,416H320.004z M379.948,379.496l-10.688-15.984l-6.896,6.824 c-0.384,0.368-39,37.664-114.36,37.664s-113.976-37.296-114.344-37.656l-6.896-6.896l-10.704,16.048l-7.144-35.72l-12.912,12.912 v-31.792l-19.728,6.576c9.96-22.232,28.776-27.48,29.664-27.72l6.064-1.504V179.512l16-2.288V200h8 c17.608,0,30.92-6.376,40-12.992V192h8c22.032,0,37.336-9.976,46.04-17.928c7.48,11.144,23.84,25.928,57.96,25.928h10.248 l-6.264-25.048c16.648,7.36,44.544,17.048,76.016,17.048h8v-17.2c2.584,1.192,5.272,2.216,8,3.12v124.336l6.064,1.504 c0.224,0.064,19.52,5.16,29.648,27.712l-19.712-6.576v31.792l-12.912-12.912L379.948,379.496z"/> <path d="M192.004,256c0-13.232-10.768-24-24-24s-24,10.768-24,24s10.768,24,24,24S192.004,269.232,192.004,256z M168.004,264 c-4.416,0-8-3.584-8-8c0-4.416,3.584-8,8-8s8,3.584,8,8C176.004,260.416,172.42,264,168.004,264z"/> <path d="M201.94,216.24c-1.344-0.336-33.328-8.24-65.936-8.24v16c30.584,0,61.752,7.688,62.064,7.76L201.94,216.24z"/> <path d="M328.004,232c-13.232,0-24,10.768-24,24s10.768,24,24,24s24-10.768,24-24S341.236,232,328.004,232z M328.004,264 c-4.416,0-8-3.584-8-8c0-4.416,3.584-8,8-8c4.416,0,8,3.584,8,8C336.004,260.416,332.42,264,328.004,264z"/> <path d="M297.94,231.752c0.312-0.072,31.4-7.752,62.064-7.752v-16c-32.608,0-64.592,7.904-65.936,8.24L297.94,231.752z"/> <path d="M279.98,360.416c-9.168,0.288-18.68-3.176-23.976-5.48v-28.248c14.12-4.504,24-20.024,24-30.688 c0-5.312-2.264-8.68-4.168-10.568c-5.568-5.536-14.392-5.512-24.704-5.44L248.004,280l-3.136-0.008 c-10.296-0.064-19.136-0.104-24.704,5.44c-1.896,1.888-4.16,5.256-4.16,10.568c0,10.664,9.88,26.184,24,30.688v28.248 c-5.792,2.464-15.24,5.744-23.976,5.48c-19.544-0.336-26.496-6.192-26.56-6.256l-11.12,11.504 c1.056,1.056,11.048,10.296,37.4,10.76c0.296,0.008,0.592,0.008,0.888,0.008c12.88,0,25.328-4.816,31.368-7.552 c6.04,2.736,18.488,7.552,31.368,7.552c0.296,0,0.592,0,0.888-0.008c26.352-0.464,36.344-9.704,37.4-10.76l-11.12-11.504 C306.468,354.224,299.524,360.08,279.98,360.416z M248.004,312c-7.848,0-15.216-9.92-15.936-15.376 c2.56-0.688,8.576-0.656,12.728-0.632l3.208,0.008l3.208-0.008c4.16-0.064,10.208-0.064,12.752,0.64 C263.38,301.872,255.932,312,248.004,312z"/> </g> </g> </g> </g>

</svg>